<?xml version="1.0" standalone="no"?>
<!DOCTYPE svg PUBLIC "-//W3C//DTD SVG 20010904//EN"
 "http://www.w3.org/TR/2001/REC-SVG-20010904/DTD/svg10.dtd">
<svg version="1.0" xmlns="http://www.w3.org/2000/svg"
 width="2075.000000pt" height="2075.000000pt" viewBox="0 0 2075.000000 2075.000000"
 preserveAspectRatio="xMidYMid meet">

<g transform="translate(0.000000,2075.000000) scale(0.100000,-0.100000)"
fill="#000000" stroke="none">
<path d="M695 7644 c-330 -58 -590 -283 -674 -585 -20 -71 -21 -99 -21 -527
l0 -452 1515 0 1515 0 0 -349 c0 -389 -6 -444 -61 -554 -43 -85 -110 -178
-152 -210 -47 -36 -176 -94 -262 -118 -66 -18 -110 -19 -940 -19 -978 0 -922
-4 -1082 76 -65 32 -109 63 -153 107 -74 74 -145 190 -161 264 l-12 53 -104 0
c-79 0 -103 -3 -103 -13 0 -28 49 -176 75 -227 100 -198 290 -350 525 -422
l75 -23 905 -3 c985 -3 976 -3 1127 54 104 38 170 85 289 201 126 123 167 188
210 329 l28 89 4 459 c2 252 1 469 -2 482 l-6 24 -1513 2 -1512 3 -3 323 c-2
261 1 335 13 389 49 209 232 388 460 449 66 18 121 19 940 19 823 0 874 -1
940 -19 232 -63 412 -240 459 -453 12 -52 16 -124 16 -257 l0 -186 105 0 105
0 0 168 c0 92 -5 199 -10 237 -51 357 -325 626 -704 690 -126 21 -1708 21
-1831 -1z"/>
<path d="M14040 6110 l0 -1470 100 0 100 0 0 756 c0 843 0 836 68 968 81 155
224 266 417 323 55 17 125 18 930 18 l870 0 80 -23 c186 -54 324 -164 410
-329 54 -105 54 -104 55 -940 l0 -773 105 0 106 0 -3 793 -3 792 -23 75 c-49
158 -139 296 -261 397 -87 72 -241 147 -361 175 -95 23 -96 23 -965 23 -932 0
-926 0 -1079 -51 -88 -30 -175 -79 -264 -149 -39 -30 -73 -55 -76 -55 -3 0 -6
212 -6 470 l0 470 -100 0 -100 0 0 -1470z"/>
<path d="M4060 6893 c-269 -30 -482 -190 -569 -426 l-26 -72 -3 -877 -2 -878
1620 0 1620 0 0 95 0 95 -1520 0 -1520 0 0 395 0 395 1520 0 1520 0 0 368 c0
340 -2 373 -21 442 -60 218 -232 381 -473 447 -55 15 -161 17 -1086 18 -564 1
-1041 0 -1060 -2z m2126 -209 c129 -44 239 -146 286 -264 22 -52 23 -69 23
-335 l0 -280 -1415 0 -1415 0 0 260 c0 305 9 354 78 447 81 108 165 158 322
192 11 2 479 3 1040 2 1008 -1 1021 -1 1081 -22z"/>
<path d="M7560 6893 c-84 -9 -181 -37 -260 -76 -156 -75 -282 -232 -325 -402
-13 -50 -15 -185 -15 -917 l0 -858 100 0 100 0 0 490 0 490 1520 0 1520 0 0
366 c0 298 -3 377 -15 426 -48 184 -167 327 -341 412 -149 73 -83 69 -1224 71
-564 1 -1041 0 -1060 -2z m2078 -198 c91 -22 174 -68 236 -130 111 -113 127
-181 124 -511 l-3 -249 -1415 0 -1415 0 -3 230 c-1 127 2 261 8 300 27 178
165 319 352 360 97 21 2026 21 2116 0z"/>
<path d="M11075 6889 c-163 -24 -278 -81 -390 -194 -56 -56 -90 -101 -114
-149 -67 -136 -65 -93 -68 -1043 l-4 -863 1626 0 1625 0 0 95 0 95 -1520 0
-1520 0 0 395 0 395 1521 0 1521 0 -4 378 c-4 316 -7 387 -22 436 -28 100 -75
175 -161 261 -91 92 -177 142 -302 178 -78 22 -79 22 -1103 23 -564 1 -1052
-2 -1085 -7z m2157 -206 c136 -52 235 -142 284 -259 l28 -69 4 -272 4 -272
-24 -6 c-12 -3 -651 -4 -1418 -3 l-1395 3 0 286 0 285 37 75 c61 123 160 202
299 239 71 18 111 19 1099 17 l1025 -2 57 -22z"/>
<path d="M17500 5770 l0 -1130 100 0 100 0 0 758 c0 723 1 762 20 836 29 114
73 190 160 276 85 85 188 145 305 176 66 18 119 19 930 19 971 0 931 3 1090
-78 181 -93 325 -301 325 -469 l0 -38 106 0 107 0 -7 58 c-9 77 -43 196 -73
257 -111 221 -336 388 -594 442 -76 16 -160 18 -944 18 -687 0 -875 -3 -935
-14 -147 -27 -281 -89 -419 -195 -33 -25 -62 -46 -65 -46 -3 0 -6 59 -6 130
l0 130 -100 0 -100 0 0 -1130z"/>
</g>
</svg>
