<?xml version="1.0" standalone="no"?>
<!DOCTYPE svg PUBLIC "-//W3C//DTD SVG 20010904//EN"
 "http://www.w3.org/TR/2001/REC-SVG-20010904/DTD/svg10.dtd">
<svg version="1.0" xmlns="http://www.w3.org/2000/svg"
 width="2079.000000pt" height="2563.000000pt" viewBox="0 0 2079.000000 2563.000000"
 preserveAspectRatio="xMidYMid meet">

<g transform="translate(0.000000,2563.000000) scale(0.100000,-0.100000)"
fill="#000000" stroke="none">
<path d="M10216 25623 c-1 -1 -80 -5 -176 -8 -214 -7 -303 -12 -397 -19 -40
-3 -103 -8 -140 -11 -38 -3 -86 -8 -108 -10 -22 -2 -67 -7 -100 -10 -33 -4
-76 -8 -95 -10 -19 -3 -55 -7 -80 -9 -44 -5 -80 -10 -150 -21 -19 -3 -53 -8
-75 -10 -22 -3 -51 -7 -65 -10 -14 -2 -41 -7 -60 -9 -89 -14 -144 -23 -195
-33 -11 -2 -36 -6 -55 -9 -19 -3 -46 -8 -60 -10 -14 -3 -34 -7 -45 -9 -21 -4
-53 -11 -95 -20 -14 -4 -36 -8 -50 -11 -14 -2 -36 -7 -50 -10 -14 -3 -26 -6
-27 -6 -2 0 -39 -8 -83 -18 -44 -10 -80 -16 -80 -14 0 3 -10 0 -21 -7 -12 -6
-36 -13 -53 -16 -17 -2 -49 -9 -71 -15 -22 -6 -46 -13 -52 -15 -7 -2 -19 -5
-25 -6 -7 -2 -31 -8 -53 -12 -22 -5 -42 -10 -45 -10 -3 -1 -25 -7 -50 -15 -55
-16 -59 -18 -88 -24 -12 -3 -27 -8 -32 -11 -5 -3 -20 -8 -32 -11 -28 -6 -32
-7 -88 -24 -56 -17 -60 -18 -87 -24 -12 -2 -32 -10 -45 -17 -13 -7 -24 -12
-26 -11 -5 5 -58 -11 -69 -21 -7 -5 -13 -6 -13 -3 0 4 -9 2 -21 -4 -11 -6 -29
-13 -40 -16 -10 -2 -27 -6 -36 -8 -10 -2 -39 -13 -65 -25 -27 -11 -48 -18 -48
-16 0 2 -21 -5 -47 -16 -27 -12 -55 -22 -63 -24 -34 -8 -136 -48 -147 -57 -7
-6 -13 -8 -13 -4 0 3 -25 -5 -55 -19 -30 -13 -55 -22 -55 -19 0 2 -11 -3 -25
-12 -14 -9 -25 -13 -25 -9 0 4 -11 0 -25 -9 -14 -9 -25 -14 -25 -10 0 3 -16
-4 -35 -16 -19 -12 -35 -18 -35 -15 0 4 -11 0 -25 -9 -14 -9 -25 -14 -25 -10
0 3 -16 -4 -35 -16 -19 -12 -35 -19 -35 -16 0 4 -11 -1 -24 -10 -14 -8 -27
-15 -30 -15 -3 0 -31 -10 -61 -24 -31 -13 -59 -25 -63 -26 -4 0 -16 -6 -27
-12 -11 -6 -22 -12 -25 -12 -3 -1 -43 -20 -90 -42 -47 -23 -87 -41 -90 -40 -3
0 -24 -12 -47 -26 -24 -15 -43 -25 -43 -21 0 3 -13 -4 -30 -16 -16 -12 -30
-19 -30 -16 0 2 -21 -7 -47 -21 -27 -14 -95 -50 -153 -80 -58 -30 -117 -64
-132 -75 -16 -11 -28 -16 -28 -13 0 3 -13 -3 -29 -14 -16 -12 -32 -21 -36 -21
-3 0 -26 -14 -51 -30 -24 -17 -44 -28 -44 -24 0 3 -16 -6 -35 -20 -19 -15 -35
-24 -35 -20 0 3 -16 -6 -35 -20 -19 -15 -35 -24 -35 -21 0 4 -22 -9 -49 -29
-27 -20 -52 -36 -56 -36 -5 0 -23 -11 -41 -25 -18 -14 -36 -25 -40 -25 -4 0
-22 -11 -40 -25 -18 -14 -36 -25 -40 -25 -4 0 -31 -18 -61 -40 -29 -23 -53
-38 -53 -34 0 3 -17 -7 -38 -23 -20 -15 -45 -32 -54 -38 -47 -29 -189 -129
-199 -141 -6 -8 -16 -14 -22 -14 -5 0 -29 -16 -53 -35 -23 -19 -46 -35 -50
-35 -4 0 -30 -19 -58 -43 -28 -24 -67 -54 -87 -68 -44 -30 -130 -97 -219 -171
-38 -32 -72 -58 -76 -58 -4 0 -43 -33 -88 -73 -44 -40 -92 -81 -106 -90 -105
-71 -874 -817 -948 -919 -15 -20 -67 -82 -117 -136 -108 -119 -295 -339 -295
-347 0 -3 -26 -37 -58 -74 -52 -63 -110 -138 -225 -293 -71 -96 -131 -181
-142 -199 -5 -9 -40 -61 -78 -114 -37 -53 -67 -99 -67 -100 0 -2 -29 -47 -65
-100 -36 -52 -65 -98 -65 -100 0 -3 -25 -44 -55 -90 -30 -47 -55 -87 -55 -89
0 -2 -18 -34 -41 -71 -22 -37 -49 -83 -60 -101 -44 -78 -57 -102 -86 -154
-504 -915 -876 -1929 -1079 -2940 -89 -442 -160 -964 -180 -1320 -3 -58 -8
-123 -11 -145 -9 -71 -12 -1016 -3 -1145 22 -319 31 -432 40 -515 17 -153 40
-337 49 -400 6 -33 15 -96 21 -140 7 -44 18 -116 26 -160 8 -44 19 -105 24
-135 14 -79 39 -208 51 -260 6 -25 15 -65 20 -90 6 -25 15 -65 20 -90 6 -25
16 -70 24 -100 8 -30 19 -77 26 -105 6 -27 27 -106 45 -175 47 -175 54 -200
69 -245 7 -22 23 -74 35 -115 62 -206 166 -503 250 -715 66 -164 120 -294 147
-353 18 -41 33 -76 33 -79 0 -3 15 -38 34 -77 19 -39 53 -111 76 -161 61 -130
183 -370 252 -495 14 -25 42 -76 63 -115 58 -106 60 -110 65 -115 8 -8 28 -42
56 -95 30 -57 206 -338 271 -433 24 -35 43 -67 43 -72 0 -4 3 -10 8 -12 4 -1
27 -33 52 -71 25 -37 48 -67 52 -67 5 0 8 -4 8 -10 0 -8 96 -150 132 -195 5
-5 31 -39 58 -75 27 -36 53 -69 58 -75 4 -5 28 -37 54 -70 25 -33 55 -71 67
-85 11 -14 24 -30 28 -35 14 -19 88 -110 105 -130 9 -11 26 -31 38 -45 12 -14
34 -40 48 -59 15 -18 38 -46 52 -61 14 -16 48 -54 75 -86 28 -31 84 -93 126
-138 41 -44 97 -106 125 -136 121 -133 455 -458 645 -626 125 -110 316 -273
378 -322 52 -40 141 -111 152 -121 8 -6 36 -28 64 -49 27 -20 55 -41 61 -47 6
-5 22 -17 34 -25 12 -8 59 -42 104 -75 125 -91 142 -103 240 -169 50 -33 93
-63 96 -66 11 -11 177 -118 207 -134 18 -9 33 -20 33 -25 0 -5 11 -12 24 -15
14 -3 31 -12 38 -20 8 -7 27 -21 43 -30 17 -9 47 -27 67 -39 35 -21 154 -90
256 -149 26 -15 67 -37 92 -49 25 -12 47 -25 50 -29 3 -4 28 -19 55 -33 28
-13 136 -68 240 -121 105 -54 233 -116 285 -138 52 -22 98 -45 101 -50 3 -5 9
-10 12 -9 4 0 33 -11 64 -26 121 -53 467 -193 487 -197 12 -2 79 -27 148 -55
69 -28 132 -51 140 -51 8 0 48 -14 88 -30 40 -17 80 -30 89 -30 8 0 45 -11 81
-24 93 -34 172 -59 195 -62 11 -1 40 -10 65 -19 25 -9 54 -18 65 -19 19 -3 35
-7 133 -38 20 -6 44 -12 52 -13 8 -1 35 -7 60 -14 25 -7 63 -17 85 -22 22 -6
55 -15 73 -21 19 -5 44 -12 55 -14 12 -2 45 -8 72 -14 28 -7 59 -13 70 -15 11
-2 43 -9 70 -15 28 -7 59 -14 70 -16 11 -2 56 -11 100 -19 107 -21 126 -25
155 -30 14 -2 36 -6 50 -9 14 -3 43 -7 65 -11 65 -10 98 -16 125 -21 14 -2 43
-6 65 -9 22 -3 56 -7 75 -10 19 -3 53 -8 75 -10 22 -3 56 -8 75 -11 41 -6 62
-9 150 -18 36 -4 81 -9 100 -12 19 -2 64 -6 100 -9 36 -3 92 -8 125 -11 62 -6
71 -6 310 -20 182 -11 869 -11 1055 -1 200 12 233 14 325 22 44 4 98 8 120 10
101 9 163 15 200 20 57 7 134 16 175 20 19 2 46 6 60 9 14 3 48 8 75 11 28 3
64 8 80 11 17 2 44 6 60 9 17 2 44 7 60 10 17 3 46 7 65 10 19 2 46 7 60 10
14 3 39 8 55 11 71 11 91 15 155 29 14 4 34 8 45 9 11 2 36 7 55 10 19 4 42 8
50 10 8 2 26 6 40 9 14 4 36 9 50 11 14 2 32 7 40 10 8 3 29 7 45 10 35 6 57
11 104 25 18 6 36 10 40 9 3 -1 26 5 51 12 59 18 61 18 90 24 48 11 65 15 120
31 63 18 82 23 110 29 11 3 25 8 30 11 5 3 19 8 30 11 11 2 29 6 40 9 11 3 29
7 40 9 11 3 25 8 30 11 5 3 19 8 30 11 40 8 56 13 123 37 37 13 67 23 67 20 0
-2 9 1 21 7 11 6 28 13 37 15 9 2 47 15 85 28 37 14 67 23 67 21 0 -3 11 3 25
12 14 9 25 13 25 10 0 -4 14 0 30 9 17 9 30 13 30 10 0 -3 11 2 25 11 14 9 25
14 25 10 0 -3 25 5 55 19 30 13 55 21 55 18 0 -3 6 0 14 6 8 7 22 13 32 16 28
5 387 155 402 167 6 6 12 8 12 4 0 -4 12 2 27 11 15 10 28 17 30 16 1 -1 29
10 60 24 32 15 60 27 63 28 3 0 44 20 92 43 48 23 89 42 90 41 2 -2 22 10 46
24 23 15 42 25 42 21 0 -3 14 4 30 16 17 12 30 18 30 15 0 -3 14 3 30 15 17
12 30 19 30 15 0 -3 17 6 37 20 21 14 42 25 46 25 5 0 22 9 38 21 16 11 29 17
29 13 0 -3 6 -2 13 4 6 5 32 21 57 34 74 40 124 69 138 80 6 6 12 7 12 3 0 -4
19 7 42 24 23 17 46 31 52 31 5 0 24 11 43 26 18 14 33 22 33 18 0 -3 15 5 34
20 19 14 38 26 41 26 4 0 26 13 50 30 24 17 46 30 50 30 3 0 21 11 39 25 18
14 37 25 41 25 4 0 23 11 41 25 18 14 35 25 39 25 3 0 30 18 60 40 30 22 57
40 61 40 3 0 23 13 44 30 21 16 41 30 45 30 5 0 27 16 51 35 23 19 46 35 49
35 4 0 36 23 71 50 35 28 66 50 70 50 3 0 28 18 54 40 26 22 51 40 55 40 4 0
29 18 56 41 27 23 66 52 87 66 20 14 64 50 98 79 34 30 65 54 69 54 4 0 40 29
80 65 40 36 76 65 80 65 4 0 52 40 106 90 53 49 102 90 109 90 16 0 868 852
911 911 19 26 81 101 139 167 58 66 135 158 172 204 36 46 96 120 132 165 36
45 66 86 66 91 0 5 7 16 17 23 9 8 41 49 72 92 31 43 78 109 104 145 47 66
133 189 152 220 6 8 38 57 73 109 34 51 62 96 62 98 0 4 14 25 82 127 17 25
29 46 79 135 12 21 25 43 29 48 4 6 17 27 29 48 12 20 31 54 43 75 23 39 45
79 115 207 89 161 295 586 386 795 450 1029 727 2149 821 3315 27 335 30 399
29 825 -1 638 -39 1115 -134 1675 -11 66 -24 145 -29 175 -14 87 -28 159 -45
235 -8 39 -22 104 -31 145 -8 41 -21 100 -29 130 -8 30 -25 100 -39 155 -75
304 -162 593 -297 985 -40 117 -251 639 -307 760 -100 219 -211 444 -281 575
-103 190 -218 395 -258 458 -24 37 -43 69 -43 72 0 8 -175 280 -182 283 -5 2
-8 7 -8 12 0 10 -103 164 -112 168 -5 2 -8 8 -8 13 0 10 -111 168 -225 319
-39 52 -93 124 -120 160 -27 36 -60 79 -74 96 -14 17 -39 48 -56 68 -16 21
-34 43 -40 49 -5 7 -28 35 -50 62 -40 51 -72 88 -90 109 -5 6 -39 45 -75 86
-110 127 -124 142 -155 175 -16 18 -61 65 -99 106 -91 99 -416 428 -452 458
-16 13 -61 54 -99 90 -89 83 -194 177 -265 237 -30 26 -75 64 -100 85 -65 56
-99 84 -150 124 -25 20 -58 47 -75 60 -50 42 -111 89 -135 105 -12 8 -36 27
-54 42 -17 15 -39 30 -48 34 -10 3 -18 9 -18 13 0 5 -30 30 -67 55 -65 44
-112 78 -255 181 -35 24 -88 59 -118 77 -30 17 -57 34 -60 38 -3 3 -27 20 -55
38 -27 17 -54 35 -60 40 -10 8 -76 49 -107 67 -55 31 -164 99 -168 105 -3 3
-20 12 -38 20 -19 7 -39 19 -46 26 -7 7 -29 21 -49 31 -19 10 -78 42 -131 71
-52 29 -98 52 -102 52 -4 -1 -10 3 -13 8 -6 11 -332 178 -391 202 -19 8 -51
24 -70 36 -19 12 -102 50 -185 85 -82 34 -152 66 -153 71 -2 4 -8 6 -13 2 -5
-3 -9 0 -9 7 0 7 -3 9 -7 6 -3 -4 -11 -3 -17 2 -20 16 -204 89 -210 84 -3 -4
-6 -2 -6 4 0 6 -6 10 -12 9 -7 0 -89 29 -183 66 -93 37 -197 75 -230 86 -33
11 -84 29 -113 40 -29 11 -56 21 -60 21 -9 0 -133 39 -197 62 -27 10 -61 20
-75 23 -14 2 -37 9 -53 15 -15 6 -40 13 -54 16 -15 2 -47 11 -72 19 -88 28
-136 41 -144 38 -4 -1 -17 2 -27 8 -11 6 -41 15 -67 21 -27 5 -65 14 -85 19
-101 26 -125 32 -148 35 -14 2 -38 8 -53 14 -15 6 -31 10 -35 9 -4 -1 -32 4
-62 10 -136 30 -256 54 -330 67 -14 2 -36 7 -50 9 -31 6 -73 13 -125 21 -22 4
-51 8 -65 11 -14 3 -32 5 -40 5 -8 1 -37 6 -65 11 -27 5 -72 11 -100 14 -27 3
-66 7 -85 10 -19 3 -48 7 -65 9 -16 2 -52 6 -80 10 -27 4 -66 8 -85 10 -19 1
-64 6 -100 9 -278 28 -639 46 -983 49 -109 1 -200 1 -201 0z m5704 -3612 c0
-5 -11 -16 -24 -24 -13 -9 -29 -22 -37 -29 -8 -7 -48 -42 -89 -78 -41 -36 -80
-69 -86 -75 -6 -5 -24 -21 -40 -35 -16 -14 -61 -52 -99 -86 -39 -33 -83 -72
-99 -85 -16 -13 -37 -31 -46 -39 -25 -24 -152 -134 -184 -161 -16 -13 -37 -31
-46 -39 -26 -25 -153 -135 -184 -161 -16 -13 -55 -46 -85 -74 -31 -27 -83 -72
-115 -100 -33 -27 -85 -72 -116 -100 -31 -27 -83 -72 -116 -100 -32 -27 -84
-72 -115 -100 -30 -27 -69 -61 -85 -74 -26 -22 -150 -129 -180 -156 -6 -5 -24
-21 -40 -35 -39 -33 -176 -152 -190 -165 -6 -5 -24 -21 -40 -35 -39 -33 -176
-152 -190 -165 -6 -5 -24 -21 -40 -35 -49 -41 -178 -154 -190 -165 -6 -5 -33
-29 -60 -52 -64 -54 -92 -78 -134 -116 -20 -18 -65 -57 -100 -87 -36 -30 -70
-59 -76 -65 -6 -5 -24 -21 -40 -35 -39 -33 -176 -152 -190 -165 -6 -5 -24 -21
-40 -35 -39 -33 -176 -152 -190 -165 -6 -5 -24 -21 -40 -35 -39 -33 -176 -152
-190 -165 -6 -5 -24 -21 -40 -35 -39 -33 -176 -152 -190 -165 -6 -5 -24 -21
-40 -35 -39 -33 -176 -152 -190 -165 -6 -5 -24 -21 -40 -35 -16 -14 -63 -54
-104 -90 -41 -36 -88 -76 -104 -90 -16 -14 -34 -29 -40 -35 -6 -5 -45 -39 -86
-75 -41 -36 -80 -69 -86 -75 -13 -11 -29 -25 -179 -155 -61 -52 -126 -109
-145 -127 -19 -17 -48 -42 -65 -55 -16 -13 -37 -30 -45 -38 -34 -32 -164 -146
-190 -165 -14 -11 -37 -30 -51 -43 -13 -13 -62 -56 -108 -95 -46 -40 -130
-112 -186 -162 -56 -49 -144 -126 -195 -170 -52 -44 -109 -93 -128 -110 -20
-16 -74 -64 -121 -105 -214 -185 -249 -217 -277 -240 -16 -14 -63 -54 -104
-90 -41 -36 -88 -76 -104 -90 -16 -14 -34 -29 -40 -35 -6 -5 -45 -39 -86 -75
-41 -36 -80 -69 -86 -75 -6 -5 -24 -21 -40 -35 -39 -33 -176 -152 -190 -165
-6 -5 -24 -21 -40 -35 -39 -33 -176 -152 -190 -165 -6 -5 -24 -21 -40 -35 -39
-33 -176 -152 -190 -165 -6 -5 -24 -21 -40 -35 -39 -33 -176 -152 -190 -165
-14 -12 -40 -35 -179 -155 -61 -52 -112 -97 -115 -100 -3 -3 -34 -30 -70 -60
-35 -30 -70 -59 -76 -65 -57 -52 -156 -138 -184 -161 -19 -16 -40 -33 -46 -39
-32 -30 -154 -136 -184 -161 -19 -16 -51 -43 -70 -61 -41 -37 -67 -59 -134
-116 -27 -23 -54 -46 -60 -52 -6 -5 -45 -39 -86 -75 -41 -36 -80 -69 -86 -75
-6 -5 -24 -21 -40 -35 -39 -33 -176 -152 -190 -165 -6 -5 -24 -21 -40 -35 -16
-14 -61 -52 -99 -86 -39 -33 -83 -72 -99 -85 -16 -13 -37 -31 -45 -39 -16 -15
-129 -113 -185 -160 -16 -14 -55 -47 -86 -75 -31 -27 -70 -61 -86 -74 -16 -13
-61 -53 -100 -88 -73 -64 -104 -78 -104 -45 0 10 -9 24 -20 32 -11 8 -20 18
-20 23 0 5 -12 24 -27 42 -59 68 -68 80 -66 87 2 4 -8 15 -21 25 -13 10 -26
29 -30 41 -4 12 -12 22 -17 22 -5 0 -9 5 -9 10 0 10 -37 68 -51 80 -3 3 -9 12
-13 20 -16 34 -83 138 -97 150 -5 4 -19 33 -24 50 -7 23 -30 60 -37 60 -4 0
-8 4 -8 10 0 5 -14 33 -32 62 -45 76 -88 161 -88 176 0 6 -4 12 -9 12 -5 0
-12 14 -16 30 -4 17 -10 30 -15 30 -8 0 -23 38 -21 53 1 4 -3 7 -9 7 -5 0 -10
6 -10 14 0 7 -10 35 -22 62 -12 27 -22 51 -23 54 0 3 -13 34 -28 70 -16 36
-35 79 -42 95 -7 17 -16 41 -20 55 -4 14 -13 39 -20 55 -15 35 -62 176 -95
285 -12 41 -29 94 -36 117 -7 23 -15 53 -18 66 -2 13 -11 51 -19 83 -49 195
-65 274 -93 469 -88 604 -79 1155 30 1779 9 49 22 112 30 140 8 28 17 65 19
81 3 17 10 50 17 75 7 25 14 55 16 68 3 13 11 42 18 65 7 23 21 69 31 102 55
193 149 444 238 639 18 37 33 71 33 75 6 27 18 51 25 51 5 0 9 6 9 13 0 14 54
123 71 144 6 7 8 13 4 13 -4 0 -3 6 3 13 6 6 10 14 9 17 -1 3 4 12 11 20 15
17 58 91 94 160 13 25 25 47 28 50 3 3 18 25 34 50 16 25 37 57 48 72 10 15
18 32 18 38 0 5 4 10 10 10 5 0 12 11 16 25 3 14 10 25 15 25 5 0 14 10 19 23
14 32 32 59 53 78 9 9 17 21 17 27 0 6 6 15 13 19 6 4 28 30 47 56 19 27 48
64 64 83 15 19 25 34 20 34 -4 0 6 12 23 28 18 15 33 34 35 41 2 8 22 32 45
53 23 22 41 43 40 48 -1 4 28 37 66 73 37 37 68 72 68 79 1 7 62 69 135 138
74 69 170 161 214 205 44 43 80 75 80 71 0 -8 57 39 135 112 16 15 32 27 35
27 6 0 54 36 97 73 14 12 30 22 34 22 5 0 19 9 31 20 13 11 35 31 50 44 14 13
32 26 40 29 20 10 49 29 88 58 19 14 42 29 50 33 8 3 35 20 60 36 25 17 53 33
63 36 9 4 17 10 17 14 0 5 24 20 53 35 86 42 160 84 166 93 6 8 46 26 46 20 0
-2 15 7 33 20 17 13 32 20 32 17 0 -3 14 3 30 15 17 12 30 18 30 15 0 -3 12 2
28 13 15 11 38 23 52 27 14 4 57 22 95 40 112 52 257 113 290 121 17 4 41 14
55 23 13 9 27 15 30 14 3 -2 61 15 130 37 218 71 243 78 355 104 61 14 126 30
145 36 19 5 51 12 70 15 19 3 58 10 85 15 111 20 233 40 285 45 30 3 89 10
130 15 41 6 111 14 155 19 108 11 6105 14 6105 2z m-1087 -5234 c214 -306 409
-659 538 -972 4 -11 17 -40 27 -65 65 -153 178 -503 223 -690 46 -195 83 -398
118 -655 6 -44 18 -200 25 -347 13 -233 13 -304 1 -540 -8 -150 -19 -304 -25
-343 -5 -38 -17 -117 -25 -175 -17 -117 -42 -256 -55 -310 -5 -19 -21 -84 -35
-145 -14 -60 -33 -135 -41 -165 -8 -30 -19 -73 -25 -95 -5 -22 -13 -49 -18
-60 -4 -11 -16 -45 -25 -75 -19 -60 -73 -213 -87 -245 -4 -11 -24 -60 -44
-110 -45 -112 -37 -96 -141 -310 -48 -99 -100 -201 -115 -226 -15 -26 -42 -73
-59 -105 -99 -179 -310 -481 -489 -699 -105 -128 -125 -149 -336 -361 -211
-213 -331 -319 -535 -475 -166 -126 -410 -291 -533 -358 -29 -16 -86 -48 -127
-71 -187 -104 -481 -237 -685 -310 -49 -18 -99 -36 -110 -40 -11 -5 -45 -16
-75 -25 -30 -10 -73 -23 -95 -30 -22 -7 -67 -20 -100 -29 -33 -9 -74 -21 -91
-26 -16 -6 -50 -14 -75 -20 -24 -5 -75 -16 -114 -25 -154 -35 -314 -62 -575
-97 l-165 -22 -2960 -6 c-1628 -3 -2963 -4 -2967 -2 -7 3 24 34 57 59 6 5 49
42 96 83 47 41 99 86 115 100 31 27 171 148 190 165 6 6 24 21 40 35 39 33
176 152 190 165 6 6 24 21 40 35 39 33 176 152 190 165 6 6 24 21 40 35 39 33
176 152 190 165 19 17 66 58 134 115 35 30 70 60 76 65 57 52 156 138 184 161
19 16 40 33 46 39 33 30 154 137 184 161 19 16 40 33 46 39 33 30 154 137 184
161 19 16 40 33 46 39 32 30 154 136 184 161 19 16 51 43 70 61 39 35 64 57
130 113 57 49 77 66 132 115 25 22 69 60 98 85 29 25 58 50 64 55 10 9 120
105 186 162 14 12 39 33 55 48 17 14 52 45 79 68 27 23 59 51 71 62 82 72 168
148 231 200 26 22 61 53 78 68 17 16 53 47 80 70 59 50 214 184 238 206 9 9
23 21 30 26 7 6 52 44 99 85 47 41 99 86 115 100 31 27 171 148 190 165 14 12
40 35 179 155 61 52 112 97 115 100 3 3 34 30 70 60 35 30 70 60 76 65 57 52
156 138 184 161 19 16 40 33 46 39 33 30 154 137 184 161 19 16 40 33 46 39
34 31 154 137 184 161 19 16 37 31 40 34 3 3 39 34 80 70 41 36 80 70 86 75 6
6 24 21 40 35 39 33 176 152 190 165 6 6 24 21 40 35 38 32 176 152 190 165 6
6 40 35 74 65 35 30 73 63 84 73 12 10 41 36 66 57 25 21 54 47 66 57 89 78
143 125 164 143 21 18 75 65 164 143 12 10 43 37 70 60 27 23 54 47 60 52 6 6
61 53 121 105 61 52 112 97 115 100 3 3 55 48 115 100 61 52 112 97 115 100 3
3 55 48 115 100 61 52 115 99 121 105 6 5 35 30 65 55 29 25 76 65 104 90 63
57 63 57 121 105 27 22 71 61 99 86 27 25 63 57 79 70 32 26 190 163 218 188
9 9 23 21 30 26 12 9 158 136 200 175 9 8 23 20 30 25 7 6 52 44 99 85 47 41
99 86 115 100 16 14 63 54 104 90 41 36 88 76 104 90 16 14 34 30 40 35 14 13
151 132 190 165 16 14 34 30 40 35 14 13 151 132 190 165 16 14 34 30 40 35
14 13 151 132 190 165 16 14 34 30 40 35 6 6 40 35 76 65 35 30 76 65 90 78
l25 23 23 -28 c12 -15 60 -81 105 -146z"/>
</g>
</svg>
